<svg xmlns="http://www.w3.org/2000/svg" xmlns:xlink="http://www.w3.org/1999/xlink" x="0px" y="0px" viewBox="0 0 64 64" xml:space="preserve">
<path class="st0" d="M32,0C14.3,0,0,14.3,0,32s14.3,32,32,32s32-14.3,32-32S49.7,0,32,0z M37.4,38.1c0.7,0.6,1.2,2.7,1.2,3.6l0,8.5
	h-4.8h-4.8c0,0,0-2.9,0-4.8c-6.6,1.4-8.5-3.6-8.5-3.6c-1.2-2.4-2.4-3.6-2.4-3.6c-2.4-1.4,0-1.2,0-1.2c2.4,0,3.6,2.4,3.6,2.4
	c2.1,3.6,5.9,3,7.3,2.4c0-1.2,0.5-3,1.2-3.6c-5.3-0.6-9.7-3.6-9.7-9.7c0-6.1,1.2-7.3,2.4-8.5c-0.2-0.6-1.3-2.8,0-6.1
	c0,0,2.4,0,4.8,3.6c1.2-1.2,4.8-1.2,6.1-1.2c1.2,0,4.9,0,6.1,1.2c2.4-3.6,4.8-3.6,4.8-3.6c1.3,3.3,0.3,5.5,0,6.1
	c1.2,1.2,2.4,2.4,2.4,8.5C47.1,34.4,42.7,37.5,37.4,38.1z"/>
</svg>
