<svg xmlns="http://www.w3.org/2000/svg" xmlns:xlink="http://www.w3.org/1999/xlink" x="0px" y="0px" viewBox="0 0 32 32" xml:space="preserve">
<path d="M16,0C7.2,0,0,7.2,0,16c0,8.8,7.2,16,16,16s16-7.2,16-16C32,7.2,24.8,0,16,0z M11.5,22.9H7.9V12.2h3.6V22.9z
	 M9.7,10.8L9.7,10.8c-1.2,0-2-0.8-2-1.8c0-1,0.8-1.8,2-1.8s2,0.8,2,1.8C11.7,10,10.9,10.8,9.7,10.8z M24.3,22.9l-3.6,0v-5.7
	c0-1.4-0.5-2.4-1.8-2.4c-1,0-1.6,0.7-1.8,1.3C17,16.3,17,16.6,17,17v6h-3.6c0,0,0-9.7,0-10.7H17v1.5c0.5-0.7,1.3-1.8,3.2-1.8
	c2.3,0,4.1,1.5,4.1,4.8V22.9z"/>
</svg>
